<svg xmlns="http://www.w3.org/2000/svg" width="1600" height="2748" viewBox="0 0 1600 2748" font-family="Segoe UI, Microsoft YaHei, PingFang SC, sans-serif">
<rect width="1600" height="2748" fill="#FAFBFC"/>
<defs>
<marker id="ah-gray" markerWidth="9" markerHeight="7" refX="8" refY="3.5" orient="auto"><polygon points="0 0, 9 3.5, 0 7" fill="#546E7A"/></marker>
<marker id="ah-blue" markerWidth="9" markerHeight="7" refX="8" refY="3.5" orient="auto"><polygon points="0 0, 9 3.5, 0 7" fill="#1565C0"/></marker>
<marker id="ah-green" markerWidth="9" markerHeight="7" refX="8" refY="3.5" orient="auto"><polygon points="0 0, 9 3.5, 0 7" fill="#2E7D32"/></marker>
<marker id="ah-purple" markerWidth="9" markerHeight="7" refX="8" refY="3.5" orient="auto"><polygon points="0 0, 9 3.5, 0 7" fill="#6A1B9A"/></marker>
<marker id="ah-orange" markerWidth="9" markerHeight="7" refX="8" refY="3.5" orient="auto"><polygon points="0 0, 9 3.5, 0 7" fill="#E65100"/></marker>
<marker id="ah-pink" markerWidth="9" markerHeight="7" refX="8" refY="3.5" orient="auto"><polygon points="0 0, 9 3.5, 0 7" fill="#AD1457"/></marker>
</defs>
<text x="40" y="52" font-size="26" fill="#263238" text-anchor="start" font-weight="800" >Part 1 · 三分钟看懂: DAFT 是一个会自我校准的「10 人投资小组」</text>
<text x="40" y="82" font-size="13" fill="#546E7A" text-anchor="start" font-weight="400" >不需要任何金融或机器学习背景 · 每个气泡都是大白话 · 括号里是 Part 2 工程视图中的对应模块</text>
<rect x="50" y="116" width="284" height="296" rx="12" fill="#ECEFF1" fill-opacity="0.55" stroke="#546E7A" stroke-width="2"/>
<rect x="172.0" y="147" width="40" height="30" rx="2" fill="#FFFFFF" stroke="#546E7A" stroke-width="1.6"/>
<rect x="177.0" y="153" width="10" height="7" fill="#546E7A"/>
<line x1="190.0" y1="154" x2="207.0" y2="154" stroke="#546E7A" stroke-width="1.4"/>
<line x1="190.0" y1="161" x2="207.0" y2="161" stroke="#546E7A" stroke-width="1.4"/>
<line x1="190.0" y1="168" x2="207.0" y2="168" stroke="#546E7A" stroke-width="1.4"/>
<text x="192.0" y="208" font-size="15.5" fill="#37474F" text-anchor="middle" font-weight="800" >① 市场日报</text>
<text x="66" y="236" font-size="11.8" fill="#37474F" text-anchor="start" font-weight="400" >每天自动下载 300 只股票的</text>
<text x="66" y="254.5" font-size="11.8" fill="#37474F" text-anchor="start" font-weight="400" >价格和成交量 —— 相当于</text>
<text x="66" y="273.0" font-size="11.8" fill="#37474F" text-anchor="start" font-weight="400" >一份「股市日报」。</text>
<text x="66" y="310.0" font-size="11.8" fill="#37474F" text-anchor="start" font-weight="400" >(工程视图: 数据层 Panel)</text>
<path d="M 337 264.0 L 351 264.0" fill="none" stroke="#546E7A" stroke-width="3" marker-end="url(#ah-gray)" opacity="0.9"/>
<rect x="354" y="116" width="284" height="296" rx="12" fill="#FCE4EC" fill-opacity="0.55" stroke="#AD1457" stroke-width="2"/>
<circle cx="482.0" cy="154" r="5" fill="#FFFFFF" stroke="#AD1457" stroke-width="1.8"/>
<path d="M 476.0 174 Q 482.0 161 488.0 174 Z" fill="#FFFFFF" stroke="#AD1457" stroke-width="1.6"/>
<circle cx="496.0" cy="154" r="5" fill="#FFFFFF" stroke="#AD1457" stroke-width="1.8"/>
<path d="M 490.0 174 Q 496.0 161 502.0 174 Z" fill="#FFFFFF" stroke="#AD1457" stroke-width="1.6"/>
<circle cx="510.0" cy="154" r="5" fill="#FFFFFF" stroke="#AD1457" stroke-width="1.8"/>
<path d="M 504.0 174 Q 510.0 161 516.0 174 Z" fill="#FFFFFF" stroke="#AD1457" stroke-width="1.6"/>
<text x="496.0" y="208" font-size="15.5" fill="#880E4F" text-anchor="middle" font-weight="800" >② 10 位分析师</text>
<text x="370" y="236" font-size="11.8" fill="#37474F" text-anchor="start" font-weight="400" >10 位风格不同的分析师读</text>
<text x="370" y="254.5" font-size="11.8" fill="#37474F" text-anchor="start" font-weight="400" >同一份日报: 有趋势派、反转</text>
<text x="370" y="273.0" font-size="11.8" fill="#37474F" text-anchor="start" font-weight="400" >派、波动派…… 每人给出一个</text>
<text x="370" y="291.5" font-size="11.8" fill="#37474F" text-anchor="start" font-weight="400" >−1 到 +1 的分数(看空到看多)。</text>
<text x="370" y="310.0" font-size="11.8" fill="#37474F" text-anchor="start" font-weight="400" >(工程视图: 专家池 MoE)</text>
<path d="M 641 264.0 L 655 264.0" fill="none" stroke="#546E7A" stroke-width="3" marker-end="url(#ah-gray)" opacity="0.9"/>
<rect x="658" y="116" width="284" height="296" rx="12" fill="#E3F2FD" fill-opacity="0.55" stroke="#1565C0" stroke-width="2"/>
<circle cx="800.0" cy="162" r="15" fill="#FFFFFF" stroke="#1565C0" stroke-width="2.4"/>
<circle cx="800.0" cy="162" r="3.2" fill="#1565C0"/>
<line x1="800.0" y1="162" x2="787.0" y2="162" stroke="#1565C0" stroke-width="2.2"/>
<line x1="800.0" y1="162" x2="813.0" y2="162" stroke="#1565C0" stroke-width="2.2"/>
<line x1="800.0" y1="162" x2="800.0" y2="175" stroke="#1565C0" stroke-width="2.2"/>
<text x="800.0" y="208" font-size="15.5" fill="#0D47A1" text-anchor="middle" font-weight="800" >③ 组长分派</text>
<text x="674" y="236" font-size="11.8" fill="#37474F" text-anchor="start" font-weight="400" >组长看一眼当前行情:</text>
<text x="674" y="254.5" font-size="11.8" fill="#37474F" text-anchor="start" font-weight="400" >「现在是震荡市, 多听反转派,</text>
<text x="674" y="273.0" font-size="11.8" fill="#37474F" text-anchor="start" font-weight="400" >少听趋势派。」 每个行情下</text>
<text x="674" y="291.5" font-size="11.8" fill="#37474F" text-anchor="start" font-weight="400" >听谁的权重都不一样。</text>
<text x="674" y="310.0" font-size="11.8" fill="#37474F" text-anchor="start" font-weight="400" >(工程视图: RegimeRouter 路由)</text>
<path d="M 945 264.0 L 959 264.0" fill="none" stroke="#546E7A" stroke-width="3" marker-end="url(#ah-gray)" opacity="0.9"/>
<rect x="962" y="116" width="284" height="296" rx="12" fill="#E8F5E9" fill-opacity="0.55" stroke="#2E7D32" stroke-width="2"/>
<rect x="1089.0" y="148" width="30" height="28" rx="3" fill="#FFFFFF" stroke="#2E7D32" stroke-width="1.8"/>
<line x1="1095.0" y1="156" x2="1113.0" y2="156" stroke="#2E7D32" stroke-width="1.4"/>
<line x1="1095.0" y1="164" x2="1113.0" y2="164" stroke="#2E7D32" stroke-width="1.4"/>
<line x1="1095.0" y1="172" x2="1113.0" y2="172" stroke="#2E7D32" stroke-width="1.4"/>
<circle cx="1089.0" cy="154" r="2.6" fill="none" stroke="#2E7D32" stroke-width="1.4"/>
<circle cx="1089.0" cy="168" r="2.6" fill="none" stroke="#2E7D32" stroke-width="1.4"/>
<text x="1104.0" y="208" font-size="15.5" fill="#1B5E20" text-anchor="middle" font-weight="800" >④ 团队笔记本</text>
<text x="978" y="236" font-size="11.8" fill="#37474F" text-anchor="start" font-weight="400" >小组有一本会自动淡忘的</text>
<text x="978" y="254.5" font-size="11.8" fill="#37474F" text-anchor="start" font-weight="400" >笔记本: 记住最近发生过的</text>
<text x="978" y="273.0" font-size="11.8" fill="#37474F" text-anchor="start" font-weight="400" >行情, 太久远的慢慢忘掉,</text>
<text x="978" y="291.5" font-size="11.8" fill="#37474F" text-anchor="start" font-weight="400" >以免被旧经验误导。</text>
<text x="978" y="310.0" font-size="11.8" fill="#37474F" text-anchor="start" font-weight="400" >(工程视图: KDA 市场记忆)</text>
<path d="M 1249 264.0 L 1263 264.0" fill="none" stroke="#546E7A" stroke-width="3" marker-end="url(#ah-gray)" opacity="0.9"/>
<rect x="1266" y="116" width="284" height="296" rx="12" fill="#FFF3E0" fill-opacity="0.55" stroke="#E65100" stroke-width="2"/>
<ellipse cx="1408.0" cy="166" rx="22" ry="9" fill="#FFFFFF" stroke="#E65100" stroke-width="1.8"/>
<circle cx="1384.0" cy="156" r="4.5" fill="#E65100"/>
<circle cx="1432.0" cy="156" r="4.5" fill="#E65100"/>
<circle cx="1408.0" cy="148" r="4.5" fill="#E65100"/>
<text x="1408.0" y="208" font-size="15.5" fill="#BF360C" text-anchor="middle" font-weight="800" >⑤ 圆桌会议</text>
<text x="1282" y="236" font-size="11.8" fill="#37474F" text-anchor="start" font-weight="400" >组长、笔记本、多层经验</text>
<text x="1282" y="254.5" font-size="11.8" fill="#37474F" text-anchor="start" font-weight="400" >三者坐下来互相校准:</text>
<text x="1282" y="273.0" font-size="11.8" fill="#37474F" text-anchor="start" font-weight="400" >笔记不确定时就不乱改主意;</text>
<text x="1282" y="291.5" font-size="11.8" fill="#37474F" text-anchor="start" font-weight="400" >行情突变时组长重新分派。</text>
<text x="1282" y="310.0" font-size="11.8" fill="#37474F" text-anchor="start" font-weight="400" >(工程视图: CDAP ★原创)</text>
<rect x="50" y="436" width="1500" height="76" rx="12" fill="#FFFFFF" stroke="#90A4AE" stroke-width="1.6"/>
<text x="72" y="464" font-size="14" fill="#263238" text-anchor="start" font-weight="800" >每天产出:</text>
<text x="160" y="464" font-size="13.5" fill="#37474F" text-anchor="start" font-weight="400" >每只股票一个分数 → 全市场排名 → 分数最高的前 20% 买入、最低的 20% 卖出(做多做空)</text>
<text x="160" y="484" font-size="13.5" fill="#546E7A" text-anchor="start" font-weight="400" >→ 每笔交易扣除约 0.06% 成本 → 每日/每周重复, 用 5 年历史数据检验总成绩</text>
<rect x="50" y="530" width="1500" height="64" rx="12" fill="#FFF3E0" stroke="#E65100" stroke-width="2"/>
<text x="800" y="558" font-size="15" fill="#BF360C" text-anchor="middle" font-weight="800" >★ 项目核心创新 = 第 ⑤ 步圆桌会议: 让「听谁的(路由)」「记什么(记忆)」「信哪层经验(深度)」互相影响</text>
<text x="800" y="580" font-size="12.5" fill="#E65100" text-anchor="middle" font-weight="400" >传统系统里这三件事各干各的; DAFT 让它们坐上同一张桌子 —— 这是对 Kimi K3 三个组件的闭环化改造</text>
<g transform="translate(0,660)">
<text x="40" y="44" font-size="24" fill="#263238" text-anchor="start" font-weight="800" >Part 2 · 工程视图 —— 数据流 × 三维调制闭环(信息无损)</text>
<text x="40" y="72" font-size="12.5" fill="#546E7A" text-anchor="start" font-weight="400" >路由 / 记忆 / 深度三维度在 R^64 联合潜空间互相调制 —— 对 Kimi K3 三组件「孤岛」的闭环化改造 · 与 Part 1 五个气泡一一对应</text>
<rect x="40" y="150" width="215" height="86" rx="10" fill="#ECEFF1" fill-opacity="0.95" stroke="#546E7A" stroke-width="1.8"/>
<text x="52" y="172" font-size="14" fill="#37474F" text-anchor="start" font-weight="700" >市场数据 Panel</text>
<text x="52" y="194" font-size="11.5" fill="#37474F" text-anchor="start" font-weight="400" >(T, N, 5) OHLCV · mask</text>
<text x="52" y="211" font-size="11.5" fill="#37474F" text-anchor="start" font-weight="400" >baostock 前复权 · 涨跌停 mask</text>
<path d="M 147 236 L 147 264" fill="none" stroke="#546E7A" stroke-width="2.2" marker-end="url(#ah-gray)" opacity="0.9"/>
<rect x="40" y="268" width="215" height="70" rx="10" fill="#ECEFF1" fill-opacity="0.95" stroke="#546E7A" stroke-width="1.8"/>
<text x="52" y="290" font-size="14" fill="#37474F" text-anchor="start" font-weight="700" >通道契约 ensure_base_panel</text>
<text x="52" y="312" font-size="11.5" fill="#37474F" text-anchor="start" font-weight="400" >OHLCV → 5 基础特征 · 唯一转换点</text>
<path d="M 147 338 L 147 364" fill="none" stroke="#546E7A" stroke-width="2.2" marker-end="url(#ah-gray)" opacity="0.9"/>
<rect x="40" y="368" width="215" height="150" rx="10" fill="#ECEFF1" fill-opacity="0.95" stroke="#546E7A" stroke-width="1.8"/>
<text x="52" y="390" font-size="14" fill="#37474F" text-anchor="start" font-weight="700" >特征层级 features</text>
<text x="52" y="412" font-size="11.5" fill="#37474F" text-anchor="start" font-weight="400" >L0 → L1 → L2 · 6 组因子</text>
<text x="52" y="429" font-size="11.5" fill="#37474F" text-anchor="start" font-weight="400" >因果 · mask 感知推导</text>
<rect x="54" y="428" width="187" height="22" rx="5" fill="#CFD8DC"/>
<text x="62" y="443" font-size="10.5" fill="#263238" text-anchor="start" font-weight="400" >L0 原始 close/vol</text>
<rect x="54" y="455" width="187" height="22" rx="5" fill="#B0BEC5"/>
<text x="62" y="470" font-size="10.5" fill="#263238" text-anchor="start" font-weight="400" >L1 基础 MA/RSI/vol</text>
<rect x="54" y="482" width="187" height="22" rx="5" fill="#90A4AE"/>
<text x="62" y="497" font-size="10.5" fill="#263238" text-anchor="start" font-weight="400" >L2 复合 regime/risk</text>
<path d="M 255 438 L 296 438" fill="none" stroke="#546E7A" stroke-width="2.2" marker-end="url(#ah-gray)" opacity="0.9"/>
<rect x="300" y="395" width="180" height="86" rx="12" fill="#37474F" stroke="#263238" stroke-width="2"/>
<text x="312" y="420" font-size="16" fill="#FFFFFF" text-anchor="start" font-weight="800" >s_t ∈ R^200</text>
<text x="312" y="441" font-size="11" fill="#CFD8DC" text-anchor="start" font-weight="400" >逐特征 z-norm</text>
<text x="312" y="458" font-size="10.5" fill="#CFD8DC" text-anchor="start" font-weight="400" >(train-only 统计 · A2 已修)</text>
<path d="M 480 415 C 514 415, 508 215, 536 215" fill="none" stroke="#1565C0" stroke-width="2.2" marker-end="url(#ah-blue)" opacity="0.9"/>
<path d="M 480 432 L 536 424" fill="none" stroke="#2E7D32" stroke-width="2.2" marker-end="url(#ah-green)" opacity="0.9"/>
<path d="M 480 455 C 514 455, 508 620, 536 620" fill="none" stroke="#6A1B9A" stroke-width="2.2" marker-end="url(#ah-purple)" opacity="0.9"/>
<rect x="637" y="133" width="127" height="22" rx="11" fill="#ECEFF1" stroke="#546E7A" stroke-width="1.2"/>
<text x="700" y="147.8" font-size="10" fill="#37474F" text-anchor="middle" font-weight="600" >K3: Stable LatentMoE</text>
<rect x="540" y="150" width="260" height="130" rx="10" fill="#E3F2FD" fill-opacity="0.95" stroke="#1565C0" stroke-width="1.8"/>
<text x="552" y="172" font-size="14" fill="#0D47A1" text-anchor="start" font-weight="700" >路由维 RegimeRouter</text>
<text x="552" y="194" font-size="11.5" fill="#37474F" text-anchor="start" font-weight="400" >z_t = LN(W↑·SiTU(W↓·s_t)) ∈ R^16</text>
<text x="552" y="211" font-size="11.5" fill="#37474F" text-anchor="start" font-weight="400" >logits = W·z_t + QuantileBalance 偏置</text>
<text x="552" y="228" font-size="11.5" fill="#37474F" text-anchor="start" font-weight="400" >p = softmax(logits / T) → 10 专家权重</text>
<text x="552" y="245" font-size="11.5" fill="#37474F" text-anchor="start" font-weight="400" >训练期探索噪声 · 推理温度 0.1</text>
<rect x="540" y="285" width="165" height="22" rx="11" fill="#FFEBEE" stroke="#C62828" stroke-width="1.2"/>
<text x="622" y="299.8" font-size="10" fill="#B71C1C" text-anchor="middle" font-weight="600" >A7 top-3 声明未落实(稠密加权)</text>
<rect x="718" y="285" width="88" height="22" rx="11" fill="#E8F5E9" stroke="#2E7D32" stroke-width="1.2"/>
<text x="762" y="299.8" font-size="10" fill="#1B5E20" text-anchor="middle" font-weight="600" >消融 +0.018 IC</text>
<rect x="674" y="313" width="53" height="22" rx="11" fill="#ECEFF1" stroke="#546E7A" stroke-width="1.2"/>
<text x="700" y="327.8" font-size="10" fill="#37474F" text-anchor="middle" font-weight="600" >K3: KDA</text>
<rect x="540" y="330" width="260" height="180" rx="10" fill="#E8F5E9" fill-opacity="0.95" stroke="#2E7D32" stroke-width="1.8"/>
<text x="552" y="352" font-size="14" fill="#1B5E20" text-anchor="start" font-weight="700" >记忆维 KDAMarketMemory</text>
<text x="552" y="374" font-size="11.5" fill="#37474F" text-anchor="start" font-weight="400" >α = lb+(1−lb)·σ(exp(A)·(f(s_t)+b))</text>
<text x="552" y="391" font-size="11.5" fill="#37474F" text-anchor="start" font-weight="400" >β = σ(w·s_t) 可学习写入步长</text>
<text x="552" y="408" font-size="11.5" fill="#37474F" text-anchor="start" font-weight="400" >M ← α⊙M − β·k⊗(Mk) + β·k⊗v   δ规则</text>
<text x="552" y="425" font-size="11.5" fill="#37474F" text-anchor="start" font-weight="400" >o = RMSNorm(gate(Mᵀq)) ∈ R^64</text>
<text x="552" y="442" font-size="11.5" fill="#37474F" text-anchor="start" font-weight="400" >槽位: 每股一份 (N,128,64) ≈ 32KB</text>
<rect x="557" y="513" width="142" height="22" rx="11" fill="#FFEBEE" stroke="#C62828" stroke-width="1.2"/>
<text x="628" y="527.8" font-size="10" fill="#B71C1C" text-anchor="middle" font-weight="600" >A3 行语义 训练≠推理(待修)</text>
<rect x="739" y="513" width="54" height="22" rx="11" fill="#E8F5E9" stroke="#2E7D32" stroke-width="1.2"/>
<text x="766" y="527.8" font-size="10" fill="#1B5E20" text-anchor="middle" font-weight="600" >消融 ≈ 0</text>
<rect x="662" y="543" width="75" height="22" rx="11" fill="#ECEFF1" stroke="#546E7A" stroke-width="1.2"/>
<text x="700" y="557.8" font-size="10" fill="#37474F" text-anchor="middle" font-weight="600" >K3: AttnRes</text>
<rect x="540" y="560" width="260" height="120" rx="10" fill="#F3E5F5" fill-opacity="0.95" stroke="#6A1B9A" stroke-width="1.8"/>
<text x="552" y="582" font-size="14" fill="#4A148C" text-anchor="start" font-weight="700" >深度维 layer_proj</text>
<text x="552" y="604" font-size="11.5" fill="#37474F" text-anchor="start" font-weight="400" >l0 / l1 / l2 : 200→128→64 投影</text>
<text x="552" y="621" font-size="11.5" fill="#37474F" text-anchor="start" font-weight="400" >输出特征层级 [L0, L1, L2]</text>
<text x="552" y="638" font-size="11.5" fill="#37474F" text-anchor="start" font-weight="400" >fused = Σ w_k·L_k (w 由 CDAP 重标)</text>
<rect x="698" y="681" width="109" height="22" rx="11" fill="#E8F5E9" stroke="#2E7D32" stroke-width="1.2"/>
<text x="752" y="695.8" font-size="10" fill="#1B5E20" text-anchor="middle" font-weight="600" >128×4 层 +0.012 IC</text>
<path d="M 668 284 C 640 304, 640 306, 668 326" fill="none" stroke="#1565C0" stroke-width="1.8" marker-end="url(#ah-blue)" opacity="0.9"/>
<text x="654" y="309" font-size="10.5" fill="#1565C0" text-anchor="end" font-weight="400" stroke="#FAFBFC" stroke-width="3.5" paint-order="stroke">z_t 调制遗忘</text>
<rect x="880" y="300" width="250" height="270" rx="14" fill="#FFF3E0" fill-opacity="0.97" stroke="#E65100" stroke-width="2.4"/>
<text x="894" y="326" font-size="15" fill="#BF360C" text-anchor="start" font-weight="800" >CDAP 联合空间 R^64</text>
<text x="894" y="350" font-size="11.5" fill="#37474F" text-anchor="start" font-weight="600" >正向投影:</text>
<text x="894" y="368" font-size="11.5" fill="#37474F" text-anchor="start" font-weight="400" >e = E(p)  m = E_m(M̄)  d = E_d([L0;L1;L2])</text>
<text x="1005" y="412" font-size="21" fill="#E65100" text-anchor="middle" font-weight="800" >j = e ⊙ m ⊙ d</text>
<text x="894" y="448" font-size="11.5" fill="#37474F" text-anchor="start" font-weight="600" >反向投影 (tanh scale 零初始化):</text>
<text x="894" y="468" font-size="11.5" fill="#37474F" text-anchor="start" font-weight="400" >→ 路由 bias(logit 空间)</text>
<text x="894" y="488" font-size="11.5" fill="#37474F" text-anchor="start" font-weight="400" >→ 记忆门 g = σ(·) → α ← α·g</text>
<text x="894" y="508" font-size="11.5" fill="#37474F" text-anchor="start" font-weight="400" >→ 深度权重 w = softmax(·)</text>
<text x="894" y="540" font-size="12" fill="#BF360C" text-anchor="start" font-weight="700" >核心创新: 三维互相调制的闭环</text>
<path d="M 800 210 C 842 210, 846 338, 876 346" fill="none" stroke="#1565C0" stroke-width="2.2" marker-end="url(#ah-blue)" opacity="0.9"/>
<text x="826" y="268" font-size="11" fill="#1565C0" text-anchor="start" font-weight="400" stroke="#FAFBFC" stroke-width="3.5" paint-order="stroke">e ← p</text>
<path d="M 800 424 L 876 428" fill="none" stroke="#2E7D32" stroke-width="2.2" marker-end="url(#ah-green)" opacity="0.9"/>
<text x="822" y="414" font-size="10.5" fill="#2E7D32" text-anchor="start" font-weight="400" stroke="#FAFBFC" stroke-width="3.5" paint-order="stroke">m ← M̄ 池化</text>
<path d="M 800 612 C 842 612, 846 522, 876 508" fill="none" stroke="#6A1B9A" stroke-width="2.2" marker-end="url(#ah-purple)" opacity="0.9"/>
<text x="824" y="572" font-size="10.5" fill="#6A1B9A" text-anchor="start" font-weight="400" stroke="#FAFBFC" stroke-width="3.5" paint-order="stroke">d ← 层堆叠</text>
<path d="M 878 334 C 828 262, 832 186, 804 170" fill="none" stroke="#E65100" stroke-width="2.4" stroke-dasharray="7 5" marker-end="url(#ah-orange)" opacity="0.9"/>
<text x="842" y="252" font-size="11" fill="#E65100" text-anchor="end" font-weight="400" stroke="#FAFBFC" stroke-width="3.5" paint-order="stroke">p′ = softmax(log p + δ·bias)</text>
<path d="M 878 436 L 804 434" fill="none" stroke="#E65100" stroke-width="2.4" stroke-dasharray="7 5" marker-end="url(#ah-orange)" opacity="0.9"/>
<text x="840" y="458" font-size="11" fill="#E65100" text-anchor="start" font-weight="400" stroke="#FAFBFC" stroke-width="3.5" paint-order="stroke">g: α ← α·g</text>
<path d="M 878 542 C 828 542, 834 626, 804 618" fill="none" stroke="#E65100" stroke-width="2.4" stroke-dasharray="7 5" marker-end="url(#ah-orange)" opacity="0.9"/>
<text x="842" y="592" font-size="11" fill="#E65100" text-anchor="end" font-weight="400" stroke="#FAFBFC" stroke-width="3.5" paint-order="stroke">w 重标定</text>
<path d="M 800 166 C 1000 78, 1250 78, 1298 734" fill="none" stroke="#1565C0" stroke-width="2.6" marker-end="url(#ah-blue)" opacity="0.9"/>
<text x="1052" y="92" font-size="12" fill="#1565C0" text-anchor="start" font-weight="700" stroke="#FAFBFC" stroke-width="3.5" paint-order="stroke">p′ 调制后路由权重 → 加权专家输出(分发机制核心)</text>
<rect x="1160" y="150" width="330" height="330" rx="10" fill="#FCE4EC" fill-opacity="0.95" stroke="#AD1457" stroke-width="1.8"/>
<text x="1172" y="172" font-size="14" fill="#880E4F" text-anchor="start" font-weight="700" >专家池 MoE · 10 = 5 类 × 2</text>
<text x="1172" y="194" font-size="11.5" fill="#37474F" text-anchor="start" font-weight="400" >y_i = SiTU(head(backbone(s_t)))</text>
<text x="1172" y="211" font-size="11.5" fill="#37474F" text-anchor="start" font-weight="400" >MLP 200→64×2→1 · 或 Transformer 变体</text>
<text x="1172" y="228" font-size="11.5" fill="#37474F" text-anchor="start" font-weight="400" >Stage1 独立训练后冻结</text>
<rect x="1174" y="214" width="302" height="24" rx="6" fill="#F8BBD0" fill-opacity="0.55"/>
<text x="1184" y="230" font-size="11.5" fill="#880E4F" text-anchor="start" font-weight="600" >趋势 Trend ×2</text>
<rect x="1174" y="244" width="302" height="24" rx="6" fill="#F48FB1" fill-opacity="0.55"/>
<text x="1184" y="260" font-size="11.5" fill="#880E4F" text-anchor="start" font-weight="600" >反转 Reversal ×2</text>
<rect x="1174" y="274" width="302" height="24" rx="6" fill="#F06292" fill-opacity="0.55"/>
<text x="1184" y="290" font-size="11.5" fill="#880E4F" text-anchor="start" font-weight="600" >波动 Volatility ×2</text>
<rect x="1174" y="304" width="302" height="24" rx="6" fill="#EC407A" fill-opacity="0.55"/>
<text x="1184" y="320" font-size="11.5" fill="#880E4F" text-anchor="start" font-weight="600" >事件 Event ×2</text>
<rect x="1174" y="334" width="302" height="24" rx="6" fill="#E91E63" fill-opacity="0.55"/>
<text x="1184" y="350" font-size="11.5" fill="#880E4F" text-anchor="start" font-weight="600" >动量 Momentum ×2</text>
<path d="M 1325 482 L 1325 736" fill="none" stroke="#AD1457" stroke-width="2.4" marker-end="url(#ah-pink)" opacity="0.9"/>
<text x="1338" y="600" font-size="11" fill="#AD1457" text-anchor="start" font-weight="400" stroke="#FAFBFC" stroke-width="3.5" paint-order="stroke">y_i ∈ (−1,1)</text>
<path d="M 390 483 L 390 700 L 1505 700 L 1505 318 L 1494 318" fill="none" stroke="#546E7A" stroke-width="2.8" marker-end="url(#ah-gray)" opacity="0.9"/>
<text x="860" y="690" font-size="11.5" fill="#546E7A" text-anchor="start" font-weight="400" stroke="#FAFBFC" stroke-width="3.5" paint-order="stroke">s_t 总线 → 全体专家共享输入(分发: 同一市场状态, 10 份个性化解读)</text>
<path d="M 800 472 C 950 486, 1080 786, 1156 802" fill="none" stroke="#2E7D32" stroke-width="2.2" marker-end="url(#ah-green)" opacity="0.9"/>
<text x="985" y="748" font-size="11" fill="#2E7D32" text-anchor="start" font-weight="400" stroke="#FAFBFC" stroke-width="3.5" paint-order="stroke">retrieved o (记忆检索)</text>
<path d="M 800 660 C 950 682, 1050 834, 1156 836" fill="none" stroke="#6A1B9A" stroke-width="2.2" marker-end="url(#ah-purple)" opacity="0.9"/>
<text x="1000" y="808" font-size="11" fill="#6A1B9A" text-anchor="start" font-weight="400" stroke="#FAFBFC" stroke-width="3.5" paint-order="stroke">fused (深度融合)</text>
<rect x="1160" y="740" width="330" height="120" rx="10" fill="#FCE4EC" fill-opacity="0.95" stroke="#AD1457" stroke-width="1.8"/>
<text x="1172" y="762" font-size="14" fill="#880E4F" text-anchor="start" font-weight="700" >信号融合</text>
<text x="1172" y="784" font-size="11.5" fill="#37474F" text-anchor="start" font-weight="400" >signal = Σ_i p′_i · y_i(s_t)</text>
<text x="1172" y="801" font-size="11.5" fill="#37474F" text-anchor="start" font-weight="400" >        + 0.1·mean(fused + retrieved)</text>
<text x="1172" y="818" font-size="11.5" fill="#37474F" text-anchor="start" font-weight="400" >p′ : CDAP 调制后的路由权重</text>
<rect x="1221" y="861" width="159" height="22" rx="11" fill="#FFEBEE" stroke="#C62828" stroke-width="1.2"/>
<text x="1300" y="875.8" font-size="10" fill="#B71C1C" text-anchor="middle" font-weight="600" >A6 0.1 系数硬编码 hack(待修)</text>
<path d="M 1325 862 L 1325 901" fill="none" stroke="#546E7A" stroke-width="2.2" marker-end="url(#ah-gray)" opacity="0.9"/>
<rect x="1160" y="905" width="330" height="72" rx="10" fill="#ECEFF1" fill-opacity="0.95" stroke="#546E7A" stroke-width="1.8"/>
<text x="1172" y="927" font-size="14" fill="#37474F" text-anchor="start" font-weight="700" >输出 signal (T−1, N)</text>
<text x="1172" y="949" font-size="11.5" fill="#37474F" text-anchor="start" font-weight="400" >→ 回测: Rank IC · 净 Sharpe(5bp+1bp)</text>
<text x="40" y="1032" font-size="16" fill="#263238" text-anchor="start" font-weight="700" >设计特点(公式级不变量)</text>
<rect x="40" y="1048" width="292" height="130" rx="10" fill="#FFFFFF" stroke="#90A4AE" stroke-width="1.4"/>
<text x="54" y="1072" font-size="12.5" fill="#37474F" text-anchor="start" font-weight="700" >① 三维联合空间 j = e⊙m⊙d</text>
<text x="54" y="1094" font-size="10.8" fill="#546E7A" text-anchor="start" font-weight="400" >任一维低激活 ⇒ 整体调制受抑</text>
<text x="54" y="1112" font-size="10.8" fill="#546E7A" text-anchor="start" font-weight="400" >记忆不确定时无法扭曲路由</text>
<text x="54" y="1130" font-size="10.8" fill="#546E7A" text-anchor="start" font-weight="400" >K3 三孤岛 → DAFT 闭环(原创)</text>
<rect x="344" y="1048" width="292" height="130" rx="10" fill="#FFFFFF" stroke="#90A4AE" stroke-width="1.4"/>
<text x="358" y="1072" font-size="12.5" fill="#37474F" text-anchor="start" font-weight="700" >② 零扰动不变量 (logit 修复)</text>
<text x="358" y="1094" font-size="10.8" fill="#546E7A" text-anchor="start" font-weight="400" >δ=0 ⇒ p′≡p · g≡0.5 · w≡均匀</text>
<text x="358" y="1112" font-size="10.8" fill="#546E7A" text-anchor="start" font-weight="400" >scale 零初始化 ⇒ 启动严格无扰动</text>
<text x="358" y="1130" font-size="10.8" fill="#546E7A" text-anchor="start" font-weight="400" >修复史: 概率空间加法 → logit 空间</text>
<rect x="648" y="1048" width="292" height="130" rx="10" fill="#FFFFFF" stroke="#90A4AE" stroke-width="1.4"/>
<text x="662" y="1072" font-size="12.5" fill="#37474F" text-anchor="start" font-weight="700" >③ KDA δ规则 + safe gate</text>
<text x="662" y="1094" font-size="10.8" fill="#546E7A" text-anchor="start" font-weight="400" >M ← αM − βk⊗(Mk) + βk⊗v</text>
<text x="662" y="1112" font-size="10.8" fill="#546E7A" text-anchor="start" font-weight="400" >α∈(lb,1) 防「金鱼记忆」(K3评审修复)</text>
<text x="662" y="1130" font-size="10.8" fill="#546E7A" text-anchor="start" font-weight="400" >O(d_k·d_v) 定长 · 与序列长度无关</text>
<rect x="952" y="1048" width="292" height="130" rx="10" fill="#FFFFFF" stroke="#90A4AE" stroke-width="1.4"/>
<text x="966" y="1072" font-size="12.5" fill="#37474F" text-anchor="start" font-weight="700" >④ SiTU 有界激活 + 温度退火</text>
<text x="966" y="1094" font-size="10.8" fill="#546E7A" text-anchor="start" font-weight="400" >σ(x)⊙tanh(x) ∈ (−1,1)</text>
<text x="966" y="1112" font-size="10.8" fill="#546E7A" text-anchor="start" font-weight="400" >多空信号量纲可比 · 防融合前漂移</text>
<text x="966" y="1130" font-size="10.8" fill="#546E7A" text-anchor="start" font-weight="400" >Stage2 温度 1.0→0.5 防熵塌缩</text>
<rect x="1256" y="1048" width="292" height="130" rx="10" fill="#FFFFFF" stroke="#90A4AE" stroke-width="1.4"/>
<text x="1270" y="1072" font-size="12.5" fill="#37474F" text-anchor="start" font-weight="700" >⑤ 负载均衡 KL (方案A)</text>
<text x="1270" y="1094" font-size="10.8" fill="#546E7A" text-anchor="start" font-weight="400" >L_bal = Σ 1/E · log((1/E)/frac)</text>
<text x="1270" y="1112" font-size="10.8" fill="#546E7A" text-anchor="start" font-weight="400" >替代互相抵消的熵正则对(塌缩根因)</text>
<text x="1270" y="1130" font-size="10.8" fill="#546E7A" text-anchor="start" font-weight="400" >balance 0.01 · 每 50 步 QuantileBalance</text>
<text x="40" y="1226" font-size="16" fill="#263238" text-anchor="start" font-weight="700" >分阶段训练与最终判定</text>
<rect x="40" y="1242" width="330" height="78" rx="10" fill="#E3F2FD" fill-opacity="0.95" stroke="#1565C0" stroke-width="1.8"/>
<text x="50" y="1264" font-size="13" fill="#0D47A1" text-anchor="start" font-weight="700" >Stage 1 · 专家独立训练</text>
<text x="50" y="1286" font-size="11" fill="#37474F" text-anchor="start" font-weight="400" >regime 子集 / 全量 · 各自早停</text>
<text x="50" y="1303" font-size="11" fill="#37474F" text-anchor="start" font-weight="400" >(A1: 随机切分泄漏 → 待修时序切分)</text>
<rect x="430" y="1242" width="360" height="78" rx="10" fill="#E8F5E9" fill-opacity="0.95" stroke="#2E7D32" stroke-width="1.8"/>
<text x="440" y="1264" font-size="13" fill="#1B5E20" text-anchor="start" font-weight="700" >Stage 2 · 路由+记忆+CDAP</text>
<text x="440" y="1286" font-size="11" fill="#37474F" text-anchor="start" font-weight="400" >δ=0.1 · 专家冻结 · 温度 1→0.5 · KL均衡</text>
<text x="440" y="1303" font-size="11" fill="#37474F" text-anchor="start" font-weight="400" >早停按 val (A2 已修: train-only 统计 ✅)</text>
<rect x="846" y="1242" width="330" height="78" rx="10" fill="#F3E5F5" fill-opacity="0.95" stroke="#6A1B9A" stroke-width="1.8"/>
<text x="856" y="1264" font-size="13" fill="#4A148C" text-anchor="start" font-weight="700" >Stage 3 · 联合微调</text>
<text x="856" y="1286" font-size="11" fill="#37474F" text-anchor="start" font-weight="400" >全解冻 · δ=1.0 · lr=1e-5 · 专家×0.1</text>
<text x="856" y="1303" font-size="11" fill="#37474F" text-anchor="start" font-weight="400" >温度 0.1 近离散路由</text>
<path d="M 374 1281 L 426 1281" fill="none" stroke="#546E7A" stroke-width="2.2" marker-end="url(#ah-gray)" opacity="0.9"/>
<path d="M 794 1281 L 842 1281" fill="none" stroke="#546E7A" stroke-width="2.2" marker-end="url(#ah-gray)" opacity="0.9"/>
<rect x="1288" y="1242" width="312" height="78" rx="10" fill="#37474F" stroke="#263238" stroke-width="1.8"/>
<text x="1300" y="1266" font-size="13.5" fill="#FFCDD2" text-anchor="start" font-weight="800" >判定 · 🔴 NO-GO(架构)</text>
<text x="1300" y="1286" font-size="11" fill="#ECEFF1" text-anchor="start" font-weight="400" >DAFT IC≈0.032 vs Ridge 0.048~0.054</text>
<text x="1300" y="1304" font-size="11" fill="#ECEFF1" text-anchor="start" font-weight="400" >转研究项目 · 负结果归档 + 论文线</text>
<path d="M 1180 1281 L 1284 1281" fill="none" stroke="#546E7A" stroke-width="2.2" marker-end="url(#ah-gray)" opacity="0.9"/>
<rect x="40" y="1348" width="16" height="16" rx="4" fill="#546E7A"/>
<text x="62" y="1361" font-size="11.5" fill="#546E7A" text-anchor="start" font-weight="400" >数据流</text>
<rect x="139.19" y="1348" width="16" height="16" rx="4" fill="#1565C0"/>
<text x="161.19" y="1361" font-size="11.5" fill="#546E7A" text-anchor="start" font-weight="400" >路由维</text>
<rect x="238.38" y="1348" width="16" height="16" rx="4" fill="#2E7D32"/>
<text x="260.38" y="1361" font-size="11.5" fill="#546E7A" text-anchor="start" font-weight="400" >记忆维</text>
<rect x="337.57" y="1348" width="16" height="16" rx="4" fill="#6A1B9A"/>
<text x="359.57" y="1361" font-size="11.5" fill="#546E7A" text-anchor="start" font-weight="400" >深度维</text>
<rect x="436.76" y="1348" width="16" height="16" rx="4" fill="#AD1457"/>
<text x="458.76" y="1361" font-size="11.5" fill="#546E7A" text-anchor="start" font-weight="400" >专家/融合</text>
<rect x="554.12" y="1348" width="16" height="16" rx="4" fill="#E65100"/>
<text x="576.12" y="1361" font-size="11.5" fill="#546E7A" text-anchor="start" font-weight="400" >CDAP 调制(虚线=反馈)</text>
<rect x="733" y="1345" width="88" height="22" rx="11" fill="#FFEBEE" stroke="#C62828" stroke-width="1.2"/>
<text x="777.26" y="1359.8" font-size="10.5" fill="#B71C1C" text-anchor="middle" font-weight="600" >红 = A级待修项</text>
<rect x="875" y="1345" width="104" height="22" rx="11" fill="#E8F5E9" stroke="#2E7D32" stroke-width="1.2"/>
<text x="927.26" y="1359.8" font-size="10.5" fill="#1B5E20" text-anchor="middle" font-weight="600" >绿 = 消融实证贡献</text>
</g>
<text x="40" y="2130" font-size="26" fill="#263238" text-anchor="start" font-weight="800" >Part 3 · 一个具体案例: 2025-06-20(周五) 的某只股票</text>
<text x="40" y="2160" font-size="13" fill="#546E7A" text-anchor="start" font-weight="400" >从「今天喂进什么数据」到「今天输出什么决定」 · 数字为示意值, 用于演示机制而非真实行情</text>
<rect x="50" y="2188" width="400" height="330" rx="10" fill="#ECEFF1" fill-opacity="0.95" stroke="#546E7A" stroke-width="1.8"/>
<text x="62" y="2210" font-size="14" fill="#37474F" text-anchor="start" font-weight="700" >输入(全部自动下载, 无人手工填写)</text>
<text x="62" y="2232" font-size="11.5" fill="#37474F" text-anchor="start" font-weight="400" >来源: baostock · 前复权日线</text>
<text x="62" y="2249" font-size="11.5" fill="#37474F" text-anchor="start" font-weight="400" ></text>
<text x="62" y="2266" font-size="11.5" fill="#37474F" text-anchor="start" font-weight="400" >股票: 600519 贵州茅台(示例)</text>
<text x="62" y="2283" font-size="11.5" fill="#37474F" text-anchor="start" font-weight="400" >今日收盘: 1480.0 元(比昨天 +1.2%)</text>
<text x="62" y="2300" font-size="11.5" fill="#37474F" text-anchor="start" font-weight="400" >今日成交量: 比平时多 3 成</text>
<text x="62" y="2317" font-size="11.5" fill="#37474F" text-anchor="start" font-weight="400" >近 20 日每天波动约 ±1.8%</text>
<text x="62" y="2334" font-size="11.5" fill="#37474F" text-anchor="start" font-weight="400" >当日未涨停跌停 → 可以交易</text>
<text x="62" y="2351" font-size="11.5" fill="#37474F" text-anchor="start" font-weight="400" ></text>
<text x="62" y="2368" font-size="11.5" fill="#37474F" text-anchor="start" font-weight="400" >同一时刻, 全市场 300 只股票的</text>
<text x="62" y="2385" font-size="11.5" fill="#37474F" text-anchor="start" font-weight="400" >同类数据一起喂入(截面比较用)</text>
<rect x="164" y="2529" width="172" height="22" rx="11" fill="#ECEFF1" stroke="#546E7A" stroke-width="1.2"/>
<text x="250" y="2543.8" font-size="10.5" fill="#37474F" text-anchor="middle" font-weight="600" >对应 Part 1 气泡 ①「市场日报」</text>
<path d="M 454 2353 L 502 2353" fill="none" stroke="#546E7A" stroke-width="2.6" marker-end="url(#ah-gray)" opacity="0.9"/>
<rect x="506" y="2188" width="520" height="330" rx="10" fill="#FFFDE7" fill-opacity="0.95" stroke="#F9A825" stroke-width="1.8"/>
<text x="518" y="2210" font-size="14" fill="#F57F17" text-anchor="start" font-weight="700" >五步处理(对应 Part 1 气泡 ②③④⑤)</text>
<text x="518" y="2232" font-size="11.5" fill="#37474F" text-anchor="start" font-weight="400" >1. 变成 200 个数字: 例如「近 20 日累计涨幅 = +3.2%」、</text>
<text x="518" y="2249" font-size="11.5" fill="#37474F" text-anchor="start" font-weight="400" >   「成交量相对常态 = +0.41」…… 全部机器可读。</text>
<text x="518" y="2266" font-size="11.5" fill="#37474F" text-anchor="start" font-weight="400" >2. 10 位分析师各自打分: 趋势派 +0.31 · 动量派 +0.44 ·</text>
<text x="518" y="2283" font-size="11.5" fill="#37474F" text-anchor="start" font-weight="400" >   反转派 −0.12 · 波动派 +0.05 · 事件派 +0.18 ……</text>
<text x="518" y="2300" font-size="11.5" fill="#37474F" text-anchor="start" font-weight="400" >3. 组长看市况: 判断当前像「震荡市」→ 这次多听</text>
<text x="518" y="2317" font-size="11.5" fill="#37474F" text-anchor="start" font-weight="400" >   反转派和波动派, 少听趋势派。</text>
<text x="518" y="2334" font-size="11.5" fill="#37474F" text-anchor="start" font-weight="400" >4. 笔记本提醒: 3 周前出现过类似形态, 之后小涨 →</text>
<text x="518" y="2351" font-size="11.5" fill="#37474F" text-anchor="start" font-weight="400" >   把各专家的意见轻微上调一点点。</text>
<text x="518" y="2368" font-size="11.5" fill="#37474F" text-anchor="start" font-weight="400" >5. 圆桌合成最终听谁: 动量 0.32 / 事件 0.27 / 趋势 0.24</text>
<text x="518" y="2385" font-size="11.5" fill="#37474F" text-anchor="start" font-weight="400" >   / 反转 0.17(权重相加 = 1, 不是简单平均)。</text>
<path d="M 1030 2353 L 1078 2353" fill="none" stroke="#546E7A" stroke-width="2.6" marker-end="url(#ah-gray)" opacity="0.9"/>
<rect x="1082" y="2188" width="468" height="330" rx="10" fill="#E8F5E9" fill-opacity="0.6" stroke="#2E7D32" stroke-width="2"/>
<text x="1100" y="2216" font-size="14" fill="#1B5E20" text-anchor="start" font-weight="800" >输出(当天唯一产物: 一张打分表)</text>
<text x="1100" y="2246" font-size="14.5" fill="#1B5E20" text-anchor="start" font-weight="700" >本股今日信号 = +0.42</text>
<text x="1100" y="2265" font-size="11.5" fill="#546E7A" text-anchor="start" font-weight="400" >在 −1(最看空) ~ +1(最看多) 之间</text>
<text x="1100" y="2292" font-size="14.5" fill="#1B5E20" text-anchor="start" font-weight="700" >全市场排名: 第 4 / 300</text>
<text x="1100" y="2311" font-size="11.5" fill="#546E7A" text-anchor="start" font-weight="400" >按信号从高到低排序</text>
<text x="1100" y="2338" font-size="14.5" fill="#1B5E20" text-anchor="start" font-weight="700" >→ 进入「买入组」(前 20%)</text>
<text x="1100" y="2357" font-size="11.5" fill="#546E7A" text-anchor="start" font-weight="400" >后 20% 做空, 中间不动</text>
<text x="1100" y="2384" font-size="14.5" fill="#1B5E20" text-anchor="start" font-weight="700" >次日实际走势: +0.8% ✓</text>
<text x="1100" y="2403" font-size="11.5" fill="#546E7A" text-anchor="start" font-weight="400" >这次方向猜对了</text>
<text x="1100" y="2430" font-size="14.5" fill="#1B5E20" text-anchor="start" font-weight="700" >扣除成本 0.06% → 净 +0.74%</text>
<text x="1100" y="2449" font-size="11.5" fill="#546E7A" text-anchor="start" font-weight="400" >买与卖各付一次费用</text>
<path d="M 1316 2522 L 1316 2558" fill="none" stroke="#546E7A" stroke-width="2.4" marker-end="url(#ah-gray)" opacity="0.9"/>
<rect x="50" y="2564" width="1500" height="96" rx="12" fill="#FFFFFF" stroke="#90A4AE" stroke-width="1.6"/>
<text x="74" y="2596" font-size="14" fill="#263238" text-anchor="start" font-weight="800" >然后呢?</text>
<text x="160" y="2590" font-size="13" fill="#37474F" text-anchor="start" font-weight="400" >同样的流程在 5 年 × 约 1200 个交易日 × 300 只股票上每天重复一遍, 得到组合的长期成绩单:</text>
<text x="160" y="2614" font-size="13" fill="#B71C1C" text-anchor="start" font-weight="400" >方向预测准确率仅比抛硬币略好(IC≈0.03 ≈ 51%), 扣除成本后整体未能跑赢一个简单的线性统计方法 ——</text>
<text x="160" y="2638" font-size="13" fill="#B71C1C" text-anchor="start" font-weight="400" >这正是项目 2026-08-17 判定 🔴 NO-GO(架构)、转向研究归档的原因。诚实报告负结果, 与报告正结果同等重要。</text>
<text x="40" y="2700" font-size="11" fill="#90A4AE" text-anchor="start" font-weight="400" >生成 2026-08-18 · 基于全量代码审读(src/daft + scripts + docs) · 配套纲领 docs/K3_GUIDANCE_2026-08-18.md · 修复线: A2✅(PR 16) → A1 → A3 → A4 → A5 → A6</text>
</svg>